<?xml version="1.0" encoding="UTF-8"?>
<svg id="Layer_1" xmlns="http://www.w3.org/2000/svg" baseProfile="tiny" version="1.2" viewBox="0 0 16 16">
  <!-- Generator: Adobe Illustrator 29.6.1, SVG Export Plug-In . SVG Version: 2.1.1 Build 9)  -->
  <path d="M15.9.1c-.5,4.2-3.5,5.7-5,5.9-.9.1-2.2,0-2.7.9-.3.5,0,.7.4,1.2.2.4.5,1,.6,1.3.7,2,0,4-1,4.9-1.7,1.8-5.6,1.8-6.8,1.1-1-.7-1.6-4.3-.2-6.2.9-1.3,3-2.7,4.3-2.8-.4,1.1-.5,2.7-.8,3.1-.2.3-2.3,3.5-2.3,4.7,2.5-2.2,4-3.7,4.2-4.3s.2-1,.2-1.3c0-1.3.4-2.6,1.1-3.6,1-1.5,2.1-3.1,4.1-3.2S15.9.1,15.9.1Z" fill="#e0e0e0"/>
  <path d="M7.7,2.6c-1.3,1.3-1.9,2.8-1.9,2.8-2.5.4-3-2.3-3.1-3,0-.3-.3-2.2-.3-2.2.4.4,1.7.8,2.2.8,2.8-.2,3.1,1.6,3.1,1.6Z" fill="#e0e0e0"/>
</svg>